<?xml version="1.0" standalone="no"?>
<!DOCTYPE svg PUBLIC "-//W3C//DTD SVG 20010904//EN"
 "http://www.w3.org/TR/2001/REC-SVG-20010904/DTD/svg10.dtd">
<svg version="1.0" xmlns="http://www.w3.org/2000/svg"
 width="501.000000pt" height="501.000000pt" viewBox="0 0 501.000000 501.000000"
 preserveAspectRatio="xMidYMid meet">
<metadata>
Created by potrace 1.11, written by Peter Selinger 2001-2013
</metadata>
<g transform="translate(0.000000,501.000000) scale(0.100000,-0.100000)"
fill="#000000" stroke="none">
<path d="M2130 3789 c-42 -26 -63 -52 -94 -115 -29 -61 -36 -92 -43 -203 l-5
-84 -74 -114 c-41 -62 -74 -115 -74 -117 0 -3 -14 -27 -31 -55 -36 -57 -34
-57 -121 5 -27 19 -48 31 -48 26 1 -6 81 -67 122 -93 5 -3 -6 -33 -24 -68 -38
-70 -37 -70 -136 -24 -31 15 -61 29 -67 31 -33 15 49 -40 95 -63 30 -15 56
-28 58 -30 1 -1 -15 -41 -37 -88 -104 -227 -191 -515 -215 -712 -18 -148 -22
-183 -21 -217 2 -43 0 -44 -57 -21 -108 42 -214 137 -257 228 -72 153 -51 292
62 413 l50 52 -34 -6 c-131 -25 -271 -123 -327 -229 -45 -85 -57 -136 -56
-255 0 -116 11 -181 50 -299 8 -24 13 -45 11 -48 -2 -2 -24 22 -48 54 -67 90
-67 90 -75 36 -3 -27 -8 -57 -10 -68 -7 -33 -6 -167 1 -210 25 -160 111 -303
230 -385 58 -40 173 -96 213 -105 26 -5 32 -10 27 -26 -4 -11 -2 -19 4 -19 6
0 10 5 9 11 -2 6 3 14 11 17 10 3 11 0 5 -9 -6 -12 -5 -12 8 -1 10 8 19 9 22
3 4 -5 -3 -12 -14 -16 -11 -3 -20 -11 -20 -16 0 -6 14 -1 30 11 23 16 34 19
44 11 7 -6 16 -7 20 -3 4 4 14 -2 22 -12 14 -20 14 -20 14 0 1 16 3 16 16 -6
8 -14 13 -17 10 -7 -5 16 0 17 42 13 26 -2 49 -5 52 -6 3 -1 9 -2 14 -1 5 1
13 -4 17 -11 5 -7 9 -8 9 -2 0 7 48 11 140 11 86 1 140 -2 140 -8 0 -6 -5 -7
-12 -3 -7 5 -8 3 -3 -6 6 -10 10 -10 19 2 9 12 35 15 124 15 61 0 112 -4 112
-9 0 -5 -5 -6 -12 -2 -7 5 -8 3 -3 -6 6 -10 10 -10 19 2 10 13 81 15 524 15
289 0 512 -4 512 -9 0 -5 -5 -6 -12 -2 -7 5 -8 3 -3 -6 6 -10 10 -10 20 3 8
12 27 15 71 14 32 0 62 -6 66 -12 5 -6 8 -5 8 3 0 7 5 10 10 7 6 -4 7 -11 4
-17 -4 -7 -2 -8 5 -4 6 4 9 12 6 17 -4 5 10 9 29 9 20 0 36 -5 36 -11 0 -5 -5
-7 -12 -3 -7 5 -8 3 -3 -6 6 -10 10 -10 20 3 9 13 42 15 237 14 124 -1 224 1
222 5 -7 10 18 58 27 52 4 -2 7 4 7 13 0 10 13 50 30 89 80 182 112 384 107
664 -2 107 -6 206 -9 220 -2 14 -8 52 -12 85 -4 33 -8 62 -9 65 0 3 -5 28 -9
55 -9 60 -63 286 -76 321 -5 13 -12 35 -14 47 -2 12 -27 89 -56 170 -28 82
-50 150 -48 151 2 2 29 17 61 35 32 18 56 35 53 38 -2 2 -15 -2 -28 -11 -37
-25 -108 -47 -108 -34 0 6 -16 36 -36 66 -34 50 -35 56 -19 64 9 6 31 23 49
39 l31 30 -49 -33 -50 -32 -20 29 c-12 16 -66 90 -122 164 l-101 136 -2 65
c-4 126 -44 241 -104 300 -32 31 -79 50 -84 34 -2 -5 -49 -83 -106 -174 l-103
-165 -295 2 -294 2 -63 98 c-34 54 -65 104 -69 112 -4 8 -25 43 -48 77 l-41
63 -34 -20z"/>
<path d="M3826 1031 c-3 -4 4 -7 14 -6 27 2 33 10 10 12 -11 1 -22 -2 -24 -6z"/>
<path d="M4013 1017 c0 -8 6 -14 14 -14 9 0 10 4 2 14 -6 7 -12 13 -14 13 -1
0 -2 -6 -2 -13z"/>
<path d="M1151 1007 c-1 -11 -6 -15 -13 -11 -7 5 -8 3 -3 -5 10 -16 29 2 22
21 -4 8 -6 7 -6 -5z"/>
<path d="M3860 1010 c-9 -6 -10 -10 -3 -10 6 0 15 5 18 10 8 12 4 12 -15 0z"/>
<path d="M3980 1010 c-9 -6 -10 -10 -3 -10 6 0 15 5 18 10 8 12 4 12 -15 0z"/>
<path d="M3830 1001 c0 -7 -5 -9 -12 -5 -7 4 -10 3 -5 -1 4 -5 18 -10 30 -12
12 -2 18 0 12 5 -5 4 -13 11 -17 16 -5 5 -8 4 -8 -3z"/>
<path d="M3793 970 c0 -23 3 -28 9 -16 5 9 5 23 0 32 -6 12 -9 7 -9 -16z"/>
<path d="M3875 991 c-3 -5 -2 -12 3 -15 5 -3 9 1 9 9 0 17 -3 19 -12 6z"/>
<path d="M3935 991 c-9 -15 13 -23 32 -11 15 9 14 10 -6 4 -16 -4 -21 -3 -17
5 4 6 5 11 2 11 -3 0 -7 -4 -11 -9z"/>
<path d="M4070 990 c0 -5 5 -10 10 -10 6 0 10 5 10 10 0 6 -4 10 -10 10 -5 0
-10 -4 -10 -10z"/>
<path d="M1075 981 c-3 -5 -2 -12 3 -15 5 -3 9 1 9 9 0 17 -3 19 -12 6z"/>
<path d="M1100 986 c0 -2 7 -7 16 -10 8 -3 12 -2 9 4 -6 10 -25 14 -25 6z"/>
<path d="M3900 983 c0 -7 5 -15 10 -18 6 -4 8 -11 5 -16 -4 -5 -1 -9 4 -9 15
0 13 11 -4 34 -8 11 -15 15 -15 9z"/>
<path d="M3994 976 c1 -8 5 -18 8 -22 4 -3 5 1 4 10 -1 8 -5 18 -8 22 -4 3 -5
-1 -4 -10z"/>
<path d="M1160 970 c-13 -8 -12 -10 3 -10 9 0 17 5 17 10 0 12 -1 12 -20 0z"/>
<path d="M1270 969 c0 -5 5 -7 10 -4 6 3 10 8 10 11 0 2 -4 4 -10 4 -5 0 -10
-5 -10 -11z"/>
<path d="M4037 965 c-16 -11 -16 -13 -2 -19 9 -3 14 -2 10 3 -3 5 1 11 7 14 7
2 11 7 8 10 -3 3 -13 0 -23 -8z"/>
<path d="M4097 966 c-4 -10 -1 -13 8 -9 8 3 12 9 9 14 -7 12 -11 11 -17 -5z"/>
<path d="M1316 957 c3 -10 9 -15 12 -12 3 3 0 11 -7 18 -10 9 -11 8 -5 -6z"/>
<path d="M1393 955 c0 -8 4 -12 9 -9 5 3 6 10 3 15 -9 13 -12 11 -12 -6z"/>
<path d="M1195 950 c3 -5 8 -10 11 -10 2 0 4 5 4 10 0 6 -5 10 -11 10 -5 0 -7
-4 -4 -10z"/>
<path d="M1285 949 c-4 -6 -4 -13 -1 -16 3 -4 6 -1 6 6 0 7 5 9 12 5 7 -4 8
-3 4 4 -9 15 -13 15 -21 1z"/>
<path d="M1428 953 c6 -2 18 -2 25 0 6 3 1 5 -13 5 -14 0 -19 -2 -12 -5z"/>
<path d="M1575 949 c-5 -8 -4 -10 3 -5 7 4 12 2 12 -3 0 -13 27 -14 35 -2 3 5
0 13 -6 17 -8 4 -9 3 -5 -4 9 -15 -6 -16 -21 -1 -8 8 -13 7 -18 -2z"/>
<path d="M1695 950 c3 -5 2 -10 -3 -10 -6 0 -13 -8 -16 -17 -6 -15 -5 -15 13
1 18 16 20 36 5 36 -3 0 -2 -4 1 -10z"/>
<path d="M1894 952 c4 -7 3 -12 -1 -12 -5 0 -14 -9 -21 -20 -12 -19 -11 -20 8
-8 24 16 33 35 18 44 -7 4 -8 3 -4 -4z"/>
<path d="M1967 953 c-4 -3 -7 -15 -7 -25 0 -13 -4 -17 -12 -12 -7 4 -9 3 -5
-1 17 -20 34 -13 29 13 -4 19 -2 23 8 17 9 -5 11 -4 6 3 -8 14 -10 14 -19 5z"/>
<path d="M2095 950 c6 -10 -6 -14 -35 -11 -13 2 -13 0 -1 -8 17 -11 55 5 46
20 -4 5 -8 9 -11 9 -3 0 -2 -4 1 -10z"/>
<path d="M2293 953 c4 -6 2 -13 -5 -15 -8 -3 -6 -6 4 -10 17 -7 19 15 3 29 -4
4 -5 3 -2 -4z"/>
<path d="M2475 950 c-3 -5 -1 -10 4 -10 6 0 11 5 11 10 0 6 -2 10 -4 10 -3 0
-8 -4 -11 -10z"/>
<path d="M2524 949 c-3 -6 -2 -15 4 -21 6 -6 12 -6 17 3 6 8 4 10 -5 4 -10 -6
-12 -4 -7 8 7 19 2 23 -9 6z"/>
<path d="M2615 950 c3 -5 2 -10 -3 -10 -6 0 -13 -8 -16 -17 -6 -15 -5 -15 13
1 18 16 20 36 5 36 -3 0 -2 -4 1 -10z"/>
<path d="M2684 949 c-3 -6 -2 -15 4 -21 6 -6 12 -6 17 3 6 8 4 10 -5 4 -10 -6
-12 -4 -7 8 7 19 2 23 -9 6z"/>
<path d="M2775 950 c3 -5 2 -10 -3 -10 -6 0 -13 -8 -16 -17 -6 -15 -5 -15 13
1 18 16 20 36 5 36 -3 0 -2 -4 1 -10z"/>
<path d="M2844 949 c-3 -6 -2 -15 4 -21 6 -6 12 -6 17 3 6 8 4 10 -5 4 -10 -6
-12 -4 -7 8 7 19 2 23 -9 6z"/>
<path d="M2894 952 c3 -5 0 -13 -6 -15 -9 -4 -10 -6 -1 -6 17 -1 25 16 12 25
-7 4 -9 3 -5 -4z"/>
<path d="M2974 952 c3 -5 2 -12 -4 -14 -5 -2 -6 -9 -1 -16 6 -10 10 -9 14 7 3
12 0 24 -5 28 -6 3 -8 1 -4 -5z"/>
<path d="M3174 953 c4 -7 2 -13 -3 -13 -6 0 -11 -5 -11 -11 0 -5 4 -8 9 -5 5
4 12 0 15 -6 2 -7 4 -3 2 9 -1 12 -6 26 -11 30 -4 5 -5 2 -1 -4z"/>
<path d="M3374 952 c7 -12 -5 -16 -31 -13 -7 1 -13 -3 -13 -8 0 -11 39 -6 53
8 5 5 4 12 -4 16 -8 5 -10 4 -5 -3z"/>
<path d="M3471 953 c0 -5 4 -17 9 -28 8 -17 8 -16 7 8 -1 15 -5 27 -9 27 -4 0
-8 -3 -7 -7z"/>
<path d="M3574 952 c3 -5 2 -12 -4 -14 -5 -2 -6 -9 -1 -16 6 -10 10 -9 14 7 3
12 0 24 -5 28 -6 3 -8 1 -4 -5z"/>
<path d="M3734 952 c3 -5 0 -12 -6 -15 -7 -2 -10 -7 -7 -11 3 -4 12 0 18 8 9
11 9 16 0 22 -7 4 -9 3 -5 -4z"/>
<path d="M3814 949 c-4 -7 -3 -9 4 -5 5 3 13 0 15 -6 4 -9 6 -10 6 -1 1 17
-16 25 -25 12z"/>
<path d="M3956 945 c-11 -8 -15 -15 -9 -15 7 0 15 5 18 10 4 6 11 7 17 4 7 -4
8 -2 4 4 -9 14 -7 15 -30 -3z"/>
<path d="M1527 936 c-4 -10 -3 -15 3 -11 6 3 10 1 10 -6 0 -7 3 -10 6 -6 3 3
2 13 -4 22 -8 16 -9 16 -15 1z"/>
<path d="M2202 934 c10 -10 20 -16 22 -13 3 3 -5 11 -17 18 -21 13 -21 12 -5
-5z"/>
<path d="M2437 935 c3 -8 9 -12 14 -9 12 7 11 11 -5 17 -10 4 -13 1 -9 -8z"/>
<path d="M3640 942 c0 -7 -5 -10 -12 -6 -7 4 -8 3 -4 -5 4 -6 12 -9 17 -6 5 4
9 1 9 -6 0 -7 3 -10 6 -6 3 3 1 14 -5 24 -6 11 -11 13 -11 5z"/>
<path d="M3771 934 c0 -11 3 -14 6 -6 3 7 2 16 -1 19 -3 4 -6 -2 -5 -13z"/>
<path d="M3877 939 c7 -7 15 -10 18 -7 3 3 -2 9 -12 12 -14 6 -15 5 -6 -5z"/>
<path d="M1415 930 c3 -5 8 -10 11 -10 2 0 4 5 4 10 0 6 -5 10 -11 10 -5 0 -7
-4 -4 -10z"/>
<path d="M1446 928 c3 -5 10 -6 15 -3 13 9 11 12 -6 12 -8 0 -12 -4 -9 -9z"/>
<path d="M1734 927 c-4 -7 -4 -9 1 -5 4 4 14 0 22 -10 12 -16 13 -16 7 1 -5
14 -2 16 12 11 11 -4 16 -4 13 0 -12 13 -49 15 -55 3z"/>
<path d="M1826 926 c10 -8 21 -12 24 -10 5 6 -21 24 -34 24 -6 0 -1 -6 10 -14z"/>
<path d="M2007 929 c7 -7 15 -10 18 -7 3 3 -2 9 -12 12 -14 6 -15 5 -6 -5z"/>
<path d="M2124 924 c-18 -14 -18 -15 4 -4 12 6 22 13 22 15 0 8 -5 6 -26 -11z"/>
<path d="M2156 924 c-5 -14 -4 -15 9 -4 17 14 19 20 6 20 -5 0 -12 -7 -15 -16z"/>
<path d="M2320 930 c0 -5 5 -10 11 -10 5 0 7 5 4 10 -3 6 -8 10 -11 10 -2 0
-4 -4 -4 -10z"/>
<path d="M2359 923 c-13 -17 -13 -17 6 -3 11 8 22 16 24 17 2 2 0 3 -6 3 -6 0
-17 -8 -24 -17z"/>
<path d="M3034 925 c-4 -8 -11 -12 -17 -8 -6 4 -7 1 -2 -7 6 -10 10 -10 19 2
6 8 17 13 24 11 18 -7 15 4 -3 11 -9 3 -18 -1 -21 -9z"/>
<path d="M3106 926 c10 -8 21 -12 24 -10 5 6 -21 24 -34 24 -6 0 -1 -6 10 -14z"/>
<path d="M3206 927 c3 -10 9 -15 12 -12 3 3 0 11 -7 18 -10 9 -11 8 -5 -6z"/>
<path d="M3404 924 c-18 -14 -18 -14 6 -3 31 14 36 19 24 19 -6 0 -19 -7 -30
-16z"/>
<path d="M1635 920 c-3 -6 1 -7 9 -4 18 7 21 14 7 14 -6 0 -13 -4 -16 -10z"/>
<path d="M2395 920 c-4 -6 1 -7 11 -3 13 5 15 3 9 -7 -5 -9 -4 -11 4 -6 6 4 9
12 6 17 -8 12 -22 12 -30 -1z"/>
<path d="M2555 919 c-11 -16 -1 -19 13 -3 7 8 8 14 3 14 -5 0 -13 -5 -16 -11z"/>
<path d="M2715 919 c-11 -16 -1 -19 13 -3 7 8 8 14 3 14 -5 0 -13 -5 -16 -11z"/>
<path d="M2915 920 c-3 -6 1 -7 9 -4 18 7 21 14 7 14 -6 0 -13 -4 -16 -10z"/>
<path d="M3510 921 c0 -6 5 -13 12 -17 6 -4 8 -3 4 4 -3 5 0 13 6 15 8 3 6 6
-4 6 -10 1 -18 -3 -18 -8z"/>
<path d="M3670 926 c0 -2 9 -6 20 -9 11 -3 18 -1 14 4 -5 9 -34 13 -34 5z"/>
<path d="M1800 916 c0 -2 7 -7 16 -10 8 -3 12 -2 9 4 -6 10 -25 14 -25 6z"/>
<path d="M1915 910 c3 -5 8 -10 11 -10 2 0 4 5 4 10 0 6 -5 10 -11 10 -5 0 -7
-4 -4 -10z"/>
<path d="M2193 905 c0 -8 4 -12 9 -9 5 3 6 10 3 15 -9 13 -12 11 -12 -6z"/>
<path d="M2273 905 c0 -8 4 -12 9 -9 4 3 8 9 8 15 0 5 -4 9 -8 9 -5 0 -9 -7
-9 -15z"/>
<path d="M2473 905 c0 -8 4 -12 9 -9 4 3 8 9 8 15 0 5 -4 9 -8 9 -5 0 -9 -7
-9 -15z"/>
<path d="M2633 905 c0 -8 4 -12 9 -9 4 3 8 9 8 15 0 5 -4 9 -8 9 -5 0 -9 -7
-9 -15z"/>
<path d="M2793 905 c0 -8 4 -12 9 -9 4 3 8 9 8 15 0 5 -4 9 -8 9 -5 0 -9 -7
-9 -15z"/>
<path d="M2990 915 c0 -5 5 -17 10 -25 5 -8 10 -10 10 -5 0 6 -5 17 -10 25 -5
8 -10 11 -10 5z"/>
<path d="M3085 909 c-4 -6 -4 -13 -1 -16 3 -4 6 -1 6 6 0 7 5 9 12 5 7 -4 8
-3 4 4 -9 15 -13 15 -21 1z"/>
<path d="M3280 916 c0 -2 7 -7 16 -10 8 -3 12 -2 9 4 -6 10 -25 14 -25 6z"/>
<path d="M3435 910 c3 -5 8 -10 11 -10 2 0 4 5 4 10 0 6 -5 10 -11 10 -5 0 -7
-4 -4 -10z"/>
<path d="M2531 894 c0 -11 3 -14 6 -6 3 7 2 16 -1 19 -3 4 -6 -2 -5 -13z"/>
<path d="M2691 894 c0 -11 3 -14 6 -6 3 7 2 16 -1 19 -3 4 -6 -2 -5 -13z"/>
<path d="M2851 894 c0 -11 3 -14 6 -6 3 7 2 16 -1 19 -3 4 -6 -2 -5 -13z"/>
<path d="M2885 890 c-3 -6 1 -7 9 -4 18 7 21 14 7 14 -6 0 -13 -4 -16 -10z"/>
</g>
</svg>
